<?xml version="1.0" encoding="utf-8"?>
<!-- Generator: Adobe Illustrator 21.1.0, SVG Export Plug-In . SVG Version: 6.00 Build 0)  -->
<svg version="1.1" id="グループ_1" xmlns="http://www.w3.org/2000/svg" xmlns:xlink="http://www.w3.org/1999/xlink" x="0px"
	 y="0px" viewBox="0 0 115 114" style="enable-background:new 0 0 115 114;" xml:space="preserve">
<style type="text/css">
	.st0{fill:#BB2222;}
	.st1{fill:#FFFFFF;}
</style>
<path id="多角形_1" class="st0" d="M0.3,0.3L115,0L0,114L0.3,0.3z"/>
<path id="SALE" class="st1" d="M22.7,49.4c-2.5-1.3-4.8-0.8-6.7,1.2c-2.4,2.4-2.4,5.1-0.7,6.8c1.7,1.7,3.4,1.9,6.5,0.2l0.8-0.4
	c2.4-1.3,3.1-1.2,4.1-0.2c1,1,0.9,2.3-0.5,3.7C25,61.8,23.4,62,21.8,61l-1.3,2.5c2.5,1.4,4.9,0.9,7.1-1.3c2.7-2.7,2.7-5.4,0.7-7.4
	c-1.6-1.6-3.3-1.9-6.6,0L21,55.1c-2.1,1.2-2.9,1.2-3.9,0.2c-0.9-0.9-0.8-2.1,0.4-3.3c1-1,2.3-1.1,3.8-0.2L22.7,49.4z M28.6,38.4
	l-2.4,2.4L34,55.4l1.8-1.8l-2.3-4.3l3.4-3.4l4.2,2.3l2-2L28.6,38.4z M35.1,44.7l-2.7,2.7l-1.7-2.9c-0.6-1.1-1.2-2.1-2-3.4l0.1-0.1
	c1.3,0.8,2.3,1.5,3.4,2.1L35.1,44.7z M37.1,29.9l-2,2L46.3,43l7.2-7.2L52,34.2l-5.3,5.3L37.1,29.9z M53,14l-7.4,7.4l11.2,11.2
	l7.5-7.5l-1.5-1.5l-5.6,5.6l-3.6-3.6l4.1-4.1l-1.5-1.5L52,23.9l-3-3l5.4-5.4L53,14z"/>
</svg>
