<svg 
 xmlns="http://www.w3.org/2000/svg"
 xmlns:xlink="http://www.w3.org/1999/xlink"
 width="42px" height="40px">
<path fill-rule="evenodd"  fill="rgb(0, 0, 0)"
 d="M10.790,22.656 C10.042,22.656 9.294,22.654 8.546,22.650 C8.005,22.646 7.520,22.169 7.481,21.633 C7.477,21.567 7.473,21.501 7.473,21.435 C7.472,18.704 7.471,15.972 7.473,13.240 C7.474,12.547 7.922,12.044 8.540,12.028 C8.551,12.028 8.563,12.028 8.575,12.028 C9.240,12.028 9.742,12.524 9.742,13.201 C9.744,15.470 9.743,17.741 9.743,20.011 C9.743,20.123 9.743,20.236 9.743,20.383 C10.338,20.383 10.920,20.381 11.497,20.381 C11.914,20.381 12.328,20.382 12.742,20.385 C13.351,20.391 13.731,20.696 13.881,21.272 C14.049,21.914 13.515,22.642 12.842,22.648 C12.158,22.654 11.474,22.656 10.790,22.656 M31.956,22.654 C31.209,22.654 30.462,22.653 29.715,22.651 C29.121,22.649 28.633,22.150 28.632,21.550 C28.630,18.735 28.630,15.920 28.632,13.104 C28.633,12.511 29.110,12.031 29.705,12.030 C30.412,12.027 31.118,12.026 31.825,12.026 C32.531,12.026 33.238,12.027 33.944,12.030 C34.562,12.032 35.030,12.525 35.030,13.158 C35.030,13.778 34.553,14.281 33.945,14.285 C33.584,14.287 33.224,14.288 32.863,14.288 C32.300,14.288 31.738,14.286 31.176,14.286 C31.074,14.286 30.972,14.286 30.883,14.286 C30.883,14.931 30.883,15.550 30.883,16.201 C31.001,16.201 31.103,16.201 31.204,16.201 C31.287,16.201 31.370,16.201 31.454,16.201 C31.635,16.201 31.817,16.201 31.999,16.201 C32.182,16.201 32.366,16.200 32.549,16.200 C33.014,16.200 33.479,16.202 33.944,16.210 C34.606,16.221 35.040,16.708 35.029,17.391 C35.020,17.987 34.516,18.466 33.890,18.469 C33.517,18.470 33.144,18.470 32.772,18.470 C32.240,18.470 31.709,18.469 31.177,18.469 C31.075,18.469 30.972,18.469 30.880,18.469 C30.880,19.110 30.880,19.728 30.880,20.383 C30.997,20.383 31.098,20.383 31.198,20.383 C31.348,20.383 31.499,20.383 31.650,20.383 C31.777,20.383 31.905,20.383 32.032,20.383 C32.159,20.383 32.286,20.383 32.413,20.383 C32.941,20.383 33.468,20.385 33.996,20.394 C34.611,20.406 35.037,20.906 35.029,21.563 C35.022,22.136 34.527,22.648 33.953,22.650 C33.288,22.653 32.622,22.654 31.956,22.654 M16.011,22.662 C15.615,22.662 15.181,22.413 14.998,22.029 C14.907,21.840 14.852,21.615 14.851,21.407 C14.842,18.695 14.838,15.984 14.848,13.272 C14.852,12.534 15.372,12.016 15.985,12.016 C16.112,12.016 16.244,12.038 16.376,12.086 C16.849,12.257 17.147,12.702 17.148,13.251 C17.150,14.616 17.148,15.981 17.148,17.346 C17.148,18.721 17.151,20.096 17.147,21.470 C17.145,22.026 16.759,22.501 16.221,22.637 C16.154,22.654 16.083,22.662 16.011,22.662 M24.904,18.191 C24.904,18.021 24.904,17.921 24.904,17.820 C24.904,16.323 24.903,14.826 24.905,13.328 C24.905,12.951 24.994,12.600 25.281,12.333 C25.508,12.123 25.762,12.015 26.033,12.015 C26.171,12.015 26.314,12.043 26.458,12.100 C26.895,12.271 27.142,12.614 27.198,13.086 C27.206,13.151 27.204,13.218 27.204,13.283 C27.204,15.986 27.205,18.689 27.204,21.392 C27.203,22.115 26.708,22.651 26.053,22.651 C26.032,22.651 26.010,22.651 25.988,22.650 C25.594,22.628 25.308,22.409 25.082,22.099 C23.717,20.240 22.352,18.382 20.937,16.454 C20.937,17.203 20.937,17.870 20.937,18.536 C20.936,19.525 20.942,20.514 20.934,21.502 C20.930,22.056 20.483,22.565 19.951,22.648 C19.901,22.656 19.850,22.660 19.799,22.660 C19.334,22.660 18.869,22.338 18.723,21.869 C18.665,21.686 18.647,21.482 18.647,21.287 C18.642,18.660 18.642,16.033 18.647,13.405 C18.647,13.202 18.667,12.990 18.725,12.797 C18.853,12.373 19.163,12.116 19.591,12.039 C19.667,12.026 19.739,12.020 19.809,12.020 C20.201,12.020 20.514,12.221 20.760,12.559 C21.188,13.144 21.615,13.728 22.043,14.312 C22.938,15.533 23.834,16.754 24.728,17.974 C24.771,18.031 24.817,18.084 24.904,18.191 M21.065,0.000 C20.580,0.000 20.092,0.013 19.601,0.038 C16.649,0.190 13.809,0.830 11.098,2.015 C8.067,3.339 5.437,5.203 3.358,7.802 C1.404,10.246 0.249,13.016 0.028,16.145 C-0.062,17.430 0.036,18.715 0.317,19.978 C1.121,23.593 3.084,26.490 5.874,28.857 C7.602,30.324 9.541,31.443 11.646,32.283 C13.385,32.977 15.179,33.468 17.033,33.739 C17.645,33.827 18.247,33.952 18.798,34.248 C19.200,34.463 19.480,34.764 19.544,35.241 C19.637,35.931 19.552,36.610 19.438,37.288 C19.337,37.890 19.221,38.491 19.161,39.097 C19.100,39.724 19.359,40.000 19.872,40.000 C19.893,40.000 19.915,39.999 19.938,39.999 C20.157,39.990 20.390,39.936 20.586,39.841 C21.446,39.429 22.324,39.043 23.142,38.557 C27.134,36.186 30.937,33.546 34.451,30.502 C36.101,29.074 37.622,27.524 38.932,25.777 C40.874,23.189 41.998,20.311 42.000,16.385 C41.994,14.477 41.338,12.087 40.060,9.872 C38.273,6.772 35.702,4.490 32.574,2.820 C28.955,0.887 25.104,0.000 21.065,0.000 "/>
</svg>