<svg xmlns="http://www.w3.org/2000/svg" width="40" height="38" viewBox="0 0 40 38">
  <metadata><?xpacket begin="﻿" id="W5M0MpCehiHzreSzNTczkc9d"?>
<x:xmpmeta xmlns:x="adobe:ns:meta/" x:xmptk="Adobe XMP Core 5.6-c138 79.159824, 2016/09/14-01:09:01        ">
   <rdf:RDF xmlns:rdf="http://www.w3.org/1999/02/22-rdf-syntax-ns#">
      <rdf:Description rdf:about=""/>
   </rdf:RDF>
</x:xmpmeta>
                                                                                                    
                                                                                                    
                                                                                                    
                                                                                                    
                                                                                                    
                                                                                                    
                                                                                                    
                                                                                                    
                                                                                                    
                                                                                                    
                                                                                                    
                                                                                                    
                                                                                                    
                                                                                                    
                                                                                                    
                                                                                                    
                                                                                                    
                                                                                                    
                                                                                                    
                                                                                                    
                           
<?xpacket end="w"?></metadata>
<defs>
    <style>
      .cls-1 {
        fill: #fff;
        fill-rule: evenodd;
      }
    </style>
  </defs>
  <path id="shape" class="cls-1" d="M4991.27,2417.52h-2.14a1.081,1.081,0,0,1-1.01-.97c0-.06-0.01-0.12-0.01-0.19v-7.78a1.071,1.071,0,0,1,1.02-1.15h0.03a1.08,1.08,0,0,1,1.11,1.12c0.01,2.15,0,4.31,0,6.46v0.35h1.68c0.39,0,.79,0,1.18.01a1.035,1.035,0,0,1,1.09.84,1.073,1.073,0,0,1-.99,1.3c-0.65.01-1.31,0.01-1.96,0.01m20.17,0h-2.14a1.059,1.059,0,0,1-1.03-1.05v-8.02a1.024,1.024,0,0,1,1.02-1.02h4.04a1.07,1.07,0,0,1,0,2.14c-0.34.01-.68,0.01-1.03,0.01h-1.88v1.81H5012c0.45,0,.89,0,1.33.01a1.036,1.036,0,0,1,1.04,1.12,1.075,1.075,0,0,1-1.09,1.03h-2.87v1.81h1.46c0.51,0,1.01,0,1.51.01a1.035,1.035,0,0,1,.99,1.11,1.078,1.078,0,0,1-1.03,1.04h-1.9m-15.19.01a1.131,1.131,0,0,1-.97-0.6,1.38,1.38,0,0,1-.14-0.59c-0.01-2.58-.01-5.15,0-7.73a1.123,1.123,0,0,1,1.08-1.19,0.971,0.971,0,0,1,.37.07,1.127,1.127,0,0,1,.74,1.1v7.81a1.151,1.151,0,0,1-.88,1.1,0.693,0.693,0,0,1-.2.03m8.47-4.25v-4.61a1.213,1.213,0,0,1,.36-0.95,1.032,1.032,0,0,1,.72-0.3,1.186,1.186,0,0,1,.4.08,1.088,1.088,0,0,1,.71.94v7.88a1.123,1.123,0,0,1-1.1,1.2h-0.06a1.116,1.116,0,0,1-.86-0.53c-1.3-1.76-2.6-3.53-3.95-5.36v4.8a1.151,1.151,0,0,1-.94,1.08,0.708,0.708,0,0,1-.14.01,1.093,1.093,0,0,1-1.03-.75,1.975,1.975,0,0,1-.07-0.55c-0.01-2.49-.01-4.99,0-7.48a2.3,2.3,0,0,1,.07-0.58,1.013,1.013,0,0,1,.83-0.72,1.5,1.5,0,0,1,.2-0.02,1.105,1.105,0,0,1,.91.52c0.41,0.55.82,1.11,1.22,1.66q1.29,1.74,2.56,3.48c0.04,0.05.09,0.1,0.17,0.2m-3.66-17.27c-0.46,0-.93.02-1.39,0.04a22.818,22.818,0,0,0-8.1,1.88,18.815,18.815,0,0,0-7.38,5.49,14.012,14.012,0,0,0-3.17,7.92,12.735,12.735,0,0,0,.27,3.64,15.252,15.252,0,0,0,5.3,8.43,19.672,19.672,0,0,0,5.5,3.25,22.106,22.106,0,0,0,5.13,1.38,5.162,5.162,0,0,1,1.68.49,1.215,1.215,0,0,1,.71.94,6.319,6.319,0,0,1-.1,1.94c-0.09.57-.2,1.14-0.26,1.72a0.648,0.648,0,0,0,.67.86,0.148,0.148,0,0,0,.07-0.01,1.478,1.478,0,0,0,.62-0.14c0.82-.4,1.65-0.76,2.43-1.22a74.593,74.593,0,0,0,10.78-7.65,28.722,28.722,0,0,0,4.26-4.49,13.927,13.927,0,0,0,2.93-8.91,13.094,13.094,0,0,0-1.85-6.19,17.477,17.477,0,0,0-7.13-6.69,23.05,23.05,0,0,0-10.97-2.68" transform="translate(-4981 -2396)"/>
</svg>
